<svg width="10" height="17" viewBox="0 0 10 17" fill="none" xmlns="http://www.w3.org/2000/svg">
<path d="M9.44917 0.00235095C9.56829 0.012668 9.68178 0.0606009 9.77509 0.139985C9.8684 0.219369 9.93726 0.326586 9.97283 0.447873C10.0084 0.569161 10.0091 0.698974 9.97472 0.820663C9.94038 0.942351 9.87262 1.05036 9.78012 1.13081L1.53135 8.5056L9.78012 15.8737C9.8404 15.9278 9.89009 15.9939 9.92632 16.0684C9.96256 16.1428 9.98465 16.2242 9.99133 16.3077C9.998 16.3912 9.98913 16.4753 9.96523 16.5552C9.94132 16.6351 9.90285 16.7092 9.852 16.7732C9.80115 16.8373 9.73893 16.8901 9.66889 16.9286C9.59884 16.9672 9.52235 16.9906 9.44377 16.9977C9.36519 17.0048 9.28607 16.9953 9.21093 16.9699C9.13579 16.9445 9.06609 16.9036 9.00582 16.8495L0.213795 8.99016C0.146837 8.93034 0.0930033 8.85567 0.0560703 8.77139C0.0191374 8.68711 0 8.59526 0 8.50228C0 8.4093 0.0191374 8.31744 0.0560703 8.23315C0.0930033 8.14887 0.146837 8.07421 0.213795 8.01439L9.00582 0.155024C9.06639 0.0994041 9.13683 0.0572374 9.21297 0.0310161C9.28911 0.00479485 9.36942 -0.00495001 9.44917 0.00235095Z" fill="white"/>
</svg>
