<svg width="10" height="17" viewBox="0 0 10 17" fill="none" xmlns="http://www.w3.org/2000/svg">
<path d="M0.550831 0.00235095C0.431714 0.012668 0.318216 0.0606009 0.224909 0.139985C0.131601 0.219369 0.0627411 0.326586 0.0271703 0.447873C-0.00840055 0.569161 -0.00905922 0.698974 0.0252788 0.820663C0.0596168 0.942351 0.127384 1.05036 0.219881 1.13081L8.46865 8.5056L0.219881 15.8737C0.159596 15.9278 0.109915 15.9939 0.0736758 16.0684C0.0374366 16.1428 0.0153492 16.2242 0.00867434 16.3077C0.00199952 16.3912 0.0108682 16.4753 0.0347741 16.5552C0.05868 16.6351 0.0971547 16.7092 0.148001 16.7732C0.198848 16.8373 0.26107 16.8901 0.331114 16.9286C0.401159 16.9672 0.477653 16.9906 0.55623 16.9977C0.634807 17.0048 0.713926 16.9953 0.78907 16.9699C0.864214 16.9445 0.93391 16.9036 0.994179 16.8495L9.78621 8.99016C9.85316 8.93034 9.907 8.85567 9.94393 8.77139C9.98086 8.68711 10 8.59526 10 8.50228C10 8.4093 9.98086 8.31744 9.94393 8.23315C9.907 8.14887 9.85316 8.07421 9.78621 8.01439L0.994179 0.155024C0.933609 0.0994041 0.863175 0.0572374 0.787031 0.0310161C0.710887 0.00479485 0.630575 -0.00495001 0.550831 0.00235095Z" fill="white"/>
</svg>
